<?xml version="1.0" standalone="no"?>
<!DOCTYPE svg PUBLIC "-//W3C//DTD SVG 20010904//EN"
 "http://www.w3.org/TR/2001/REC-SVG-20010904/DTD/svg10.dtd">
<svg version="1.0" xmlns="http://www.w3.org/2000/svg"
 width="380.000000pt" height="280.000000pt" viewBox="0 0 380.000000 280.000000"
 preserveAspectRatio="xMidYMid meet">

<g transform="translate(0.000000,280.000000) scale(0.100000,-0.100000)"
fill="#000000" stroke="none">
<path d="M1290 1505 l0 -265 50 0 50 0 0 265 0 265 -50 0 -50 0 0 -265z"/>
<path d="M855 1612 c-63 -21 -131 -86 -140 -135 -4 -20 -2 -51 5 -71 12 -37
74 -99 110 -111 18 -6 13 -11 -38 -35 -102 -48 -106 -112 -9 -159 24 -12 77
-25 118 -31 99 -13 376 -13 384 0 11 18 -44 57 -103 73 -31 9 -109 21 -173 27
-136 12 -179 24 -179 51 0 26 27 37 106 45 139 12 209 46 245 115 34 67 24
115 -34 177 l-31 32 47 0 c40 0 47 3 47 20 0 19 -6 20 -152 19 -115 0 -166 -4
-203 -17z m166 -47 c19 -12 39 -72 39 -115 0 -118 -101 -180 -175 -106 -64 64
-31 226 48 238 23 4 68 -5 88 -17z"/>
<path d="M1450 1489 c0 -130 13 -181 57 -219 27 -24 43 -30 79 -30 25 0 55 5
67 11 16 9 22 9 25 0 2 -6 25 -11 53 -11 l49 0 0 175 0 175 -50 0 -50 0 0
-123 c0 -123 0 -124 -25 -135 -76 -35 -95 -7 -95 141 l0 117 -55 0 -55 0 0
-101z"/>
<path d="M1913 1570 c-92 -56 -107 -206 -27 -285 41 -41 119 -61 183 -46 53
11 54 13 55 56 1 35 0 35 -29 28 -62 -16 -106 -9 -131 21 -13 15 -24 31 -24
37 0 5 46 9 105 9 l105 0 0 45 c0 101 -52 155 -150 155 -37 0 -66 -6 -87 -20z
m131 -72 c9 -12 16 -26 16 -30 0 -5 -27 -8 -60 -8 -33 0 -60 3 -60 8 0 23 34
52 60 52 18 0 34 -8 44 -22z"/>
<path d="M2219 1561 c-34 -34 -39 -83 -11 -118 9 -12 44 -37 77 -55 33 -19 60
-40 60 -48 0 -12 -14 -15 -60 -15 -33 1 -68 4 -77 9 -16 7 -18 2 -18 -37 0
-43 2 -46 33 -53 54 -12 142 -7 175 10 39 20 52 44 52 93 0 47 -31 81 -103
113 -51 23 -69 46 -46 61 13 8 24 8 99 -7 28 -5 30 -4 30 25 0 40 -26 51 -116
51 -59 0 -68 -3 -95 -29z"/>
<path d="M2480 1583 c0 -4 25 -83 55 -175 l54 -168 -29 -84 c-17 -47 -30 -87
-30 -90 0 -3 24 -6 53 -6 l53 0 86 265 85 265 -53 0 -53 0 -11 -42 c-34 -129
-44 -158 -51 -151 -4 4 -18 49 -32 98 l-24 90 -51 3 c-29 2 -52 -1 -52 -5z"/>
<path d="M2877 1574 c-28 -15 -47 -49 -47 -84 0 -31 50 -80 107 -106 39 -18
53 -30 51 -42 -3 -14 -15 -17 -58 -17 -30 0 -65 4 -77 8 -21 8 -23 6 -23 -32
0 -51 20 -63 109 -63 94 -1 146 28 157 88 9 50 -19 88 -98 129 -96 51 -89 84
13 65 29 -6 53 -10 55 -10 2 0 4 13 4 30 0 19 -7 33 -19 40 -29 15 -142 12
-174 -6z"/>
</g>
</svg>
