<?xml version="1.0" standalone="no"?>
<!DOCTYPE svg PUBLIC "-//W3C//DTD SVG 20010904//EN"
 "http://www.w3.org/TR/2001/REC-SVG-20010904/DTD/svg10.dtd">
<svg version="1.0" xmlns="http://www.w3.org/2000/svg"
 width="2300.000000pt" height="300.000000pt" viewBox="0 0 2300.000000 300.000000"
 preserveAspectRatio="xMidYMid meet">

<g transform="translate(0.000000,300.000000) scale(0.100000,-0.100000)"
fill="#000000" stroke="none">
<path d="M3477 2699 c-9 -5 -68 -14 -130 -19 -119 -9 -253 -28 -427 -61 -70
-13 -247 -58 -316 -79 -17 -6 -38 -10 -47 -10 -10 0 -25 -4 -35 -9 -9 -6 -44
-17 -77 -26 -33 -9 -67 -20 -75 -24 -8 -4 -42 -16 -75 -26 -33 -10 -64 -22
-70 -27 -5 -4 -17 -8 -26 -8 -10 0 -30 -6 -46 -14 -15 -8 -41 -20 -58 -26 -16
-7 -43 -18 -60 -25 -16 -7 -41 -17 -55 -23 -14 -5 -51 -22 -82 -36 -140 -63
-166 -74 -208 -91 -25 -10 -54 -21 -65 -25 -39 -14 -121 -38 -170 -50 -27 -6
-66 -15 -85 -20 -138 -35 -485 -53 -585 -30 -45 10 -48 9 -39 -13 6 -17 75
-56 157 -88 77 -31 240 -59 337 -59 134 0 381 40 620 100 19 5 53 13 75 18 22
5 51 14 65 20 14 5 45 15 70 22 25 7 61 18 80 25 19 7 58 20 85 28 72 22 117
38 137 48 10 5 25 9 34 9 9 0 28 6 42 14 33 17 169 60 242 76 30 7 66 17 80
22 25 10 76 21 175 37 28 5 68 13 90 19 39 9 92 17 315 44 137 17 554 17 690
0 166 -20 241 -32 302 -48 32 -8 67 -14 78 -14 12 0 45 -7 73 -16 29 -8 70
-20 92 -26 22 -6 51 -14 65 -18 14 -5 66 -20 115 -35 50 -14 104 -32 120 -40
17 -7 71 -25 120 -40 50 -16 95 -31 100 -35 6 -4 21 -10 35 -13 14 -3 99 -31
190 -62 161 -56 199 -68 270 -85 19 -4 49 -13 65 -18 17 -6 55 -16 85 -21 30
-6 87 -17 126 -25 93 -18 311 -14 384 6 103 30 187 76 168 93 -2 1 -68 8 -148
14 -150 11 -253 25 -305 40 -16 5 -55 15 -85 21 -30 6 -73 17 -95 24 -22 7
-80 26 -130 41 -99 30 -112 35 -168 59 -21 9 -44 16 -52 16 -9 0 -23 4 -33 9
-32 15 -87 38 -157 66 -38 15 -81 32 -95 37 -14 6 -38 16 -55 23 -16 7 -41 17
-55 23 -39 16 -90 37 -155 67 -33 15 -69 30 -80 35 -11 4 -46 20 -78 34 -32
14 -63 26 -71 26 -7 0 -16 3 -20 7 -19 19 -218 79 -336 102 -30 6 -89 17 -130
25 -41 8 -112 17 -158 20 -45 3 -91 10 -101 16 -26 13 -420 13 -444 -1z"/>
<path d="M3415 2165 c-71 -7 -151 -18 -177 -24 -27 -6 -51 -10 -55 -9 -9 3
-106 -18 -183 -39 -30 -8 -68 -18 -85 -23 -57 -14 -210 -63 -240 -75 -16 -7
-65 -25 -108 -39 -42 -14 -86 -30 -97 -36 -11 -5 -29 -14 -40 -20 -11 -5 -26
-10 -34 -10 -8 0 -27 -6 -43 -14 -15 -8 -41 -20 -58 -26 -16 -7 -43 -18 -60
-25 -16 -7 -41 -17 -55 -23 -14 -5 -56 -22 -95 -37 -70 -28 -125 -51 -157 -66
-10 -5 -26 -9 -36 -9 -10 0 -22 -4 -28 -9 -9 -10 -199 -78 -244 -88 -14 -3
-30 -9 -35 -14 -6 -4 -44 -17 -85 -28 -229 -63 -324 -86 -420 -101 -36 -6 -87
-15 -115 -20 -27 -5 -102 -14 -165 -20 -63 -6 -123 -14 -133 -17 -20 -5 -20
19 -1 -293 3 -58 10 -109 15 -114 5 -5 24 7 46 29 47 46 153 116 213 139 61
24 217 25 280 1 66 -25 88 -36 155 -76 124 -74 405 -221 475 -248 19 -8 58
-24 85 -36 28 -12 82 -34 120 -49 39 -15 78 -32 87 -37 10 -5 23 -9 29 -9 6 0
25 -6 42 -14 32 -13 163 -54 247 -76 25 -7 63 -18 85 -25 22 -7 65 -18 95 -24
30 -6 75 -16 100 -22 47 -11 85 -18 255 -44 158 -24 424 -37 615 -30 212 8
220 9 345 30 156 26 186 32 250 50 33 9 71 19 85 22 14 3 39 11 57 19 18 8 43
12 58 8 22 -5 118 18 230 57 17 6 64 19 105 30 41 11 107 36 147 55 40 19 75
34 78 34 14 0 206 100 237 124 19 14 40 26 45 26 6 0 33 15 59 33 27 18 72 43
99 56 75 35 195 110 235 148 20 18 43 33 51 33 8 0 19 4 25 9 12 12 173 65
244 80 30 7 75 17 100 22 24 6 85 12 135 15 49 3 94 9 99 14 5 5 12 47 14 93
l4 84 -133 7 c-126 6 -165 11 -329 37 -122 20 -441 110 -464 131 -6 4 -18 8
-28 8 -10 0 -26 4 -36 9 -9 5 -48 21 -87 36 -38 14 -83 32 -100 40 -16 7 -73
29 -125 50 -52 20 -104 40 -115 45 -44 19 -93 39 -160 64 -38 15 -83 33 -100
40 -45 20 -216 78 -245 83 -14 2 -34 8 -45 12 -91 36 -308 77 -510 96 -184 17
-240 17 -420 0z m-160 -330 c-92 -114 -129 -216 -129 -360 1 -86 5 -110 29
-170 39 -97 85 -164 165 -237 241 -223 635 -260 934 -88 127 73 247 220 287
352 18 59 21 87 16 176 -5 112 -22 170 -75 255 -13 22 -21 41 -19 44 8 8 167
-49 554 -198 298 -115 463 -173 581 -205 20 -6 14 -22 -15 -37 -16 -7 -82 -44
-148 -81 -546 -307 -1006 -473 -1520 -548 -122 -18 -617 -18 -745 0 -313 44
-603 112 -885 207 -187 63 -362 127 -450 165 -11 4 -101 41 -199 82 -99 41
-181 78 -183 84 -2 5 21 15 51 22 124 29 628 205 781 273 71 31 424 163 540
200 167 55 403 116 453 118 20 1 18 -4 -23 -54z m843 -7 c-3 -21 -8 -23 -60
-21 -32 1 -60 -2 -64 -8 -3 -6 13 -29 36 -52 119 -117 104 -271 -36 -367 -64
-45 -112 -58 -262 -73 -115 -12 -136 -17 -158 -38 -14 -13 -24 -32 -22 -43 8
-50 77 -68 370 -95 121 -12 189 -28 195 -47 6 -17 -58 -51 -130 -70 -95 -26
-331 -23 -415 4 -120 39 -182 91 -182 153 0 33 77 102 140 125 29 10 55 24 57
30 2 6 -15 19 -37 29 -79 36 -144 118 -157 200 -19 117 94 243 252 281 31 8
133 13 263 13 l213 1 -3 -22z"/>
<path d="M3690 1790 c-20 -5 -50 -24 -71 -47 -29 -32 -38 -52 -48 -105 -20
-117 12 -214 85 -255 50 -29 98 -29 149 0 60 33 85 90 85 194 0 48 -6 98 -14
116 -16 39 -79 97 -106 97 -10 0 -24 2 -32 4 -7 2 -29 0 -48 -4z"/>
<path d="M10650 2050 c-71 -15 -164 -66 -210 -116 -127 -138 -154 -380 -62
-560 39 -76 125 -147 208 -170 60 -18 63 -20 62 -49 0 -16 0 -40 1 -51 1 -27
48 -74 67 -67 8 3 14 0 14 -7 0 -10 3 -10 15 0 10 9 15 9 15 1 0 -6 19 7 41
29 31 29 40 45 36 61 -5 19 -3 20 21 13 15 -5 44 -8 65 -8 27 0 37 -4 37 -16
-1 -19 -37 -63 -48 -56 -4 2 -27 -9 -51 -25 -24 -16 -40 -29 -35 -30 5 0 16
-2 25 -4 9 -1 28 8 43 21 14 14 26 20 26 13 0 -8 4 -8 15 1 8 7 15 19 15 26 0
8 14 27 32 43 27 24 30 31 20 44 -10 11 -10 17 -2 22 7 4 10 16 7 26 -3 11 0
19 6 19 7 0 25 7 40 15 16 8 38 14 50 12 12 -1 22 3 22 10 0 6 4 15 8 20 5 4
7 2 5 -6 -2 -7 3 -16 10 -18 7 -3 12 4 12 19 0 15 9 29 23 37 21 11 22 16 19
119 -4 142 -3 192 4 225 l6 27 -109 2 c-59 0 -116 0 -127 -1 -10 0 -25 7 -32
16 -13 17 -15 17 -28 1 -9 -13 -28 -18 -65 -18 l-51 0 0 -85 0 -86 39 5 c34 4
38 2 34 -15 -6 -21 7 -25 25 -7 15 15 16 3 2 -22 -8 -15 -6 -21 9 -30 24 -12
41 -13 41 -1 0 5 -9 11 -21 14 -26 7 -20 32 7 32 10 0 22 5 27 10 12 16 2 -58
-12 -82 -13 -26 -36 -31 -27 -7 5 13 2 15 -15 11 -14 -4 -33 3 -55 19 -40 31
-51 17 -24 -32 l21 -37 -23 7 c-13 3 -26 6 -30 6 -5 0 -8 7 -8 15 0 8 -9 15
-20 15 -18 0 -25 -10 -21 -32 1 -10 -13 -10 -41 1 -102 40 -149 200 -108 373
20 83 119 152 203 142 16 -2 27 2 27 9 0 7 5 4 11 -5 5 -10 15 -18 20 -18 14
0 39 -26 39 -39 0 -6 9 -11 20 -11 13 0 20 -7 20 -18 0 -17 5 -17 68 -8 37 6
72 14 77 17 6 3 28 7 50 8 22 1 44 6 49 11 14 14 -29 97 -72 143 -58 61 -123
80 -282 83 -74 2 -155 -1 -180 -6z m157 -92 c-3 -8 -6 -5 -6 6 -1 11 2 17 5
13 3 -3 4 -12 1 -19z"/>
<path d="M13597 2049 c-51 -12 -116 -46 -150 -78 -95 -87 -90 -255 9 -322 79
-54 231 -106 324 -112 29 -2 62 -34 80 -77 35 -84 -72 -149 -174 -106 -41 17
-86 74 -86 108 0 27 6 27 -186 12 l-71 -5 8 -44 c12 -66 63 -155 88 -155 6 0
11 -4 11 -9 0 -14 98 -58 145 -65 88 -15 295 -6 320 14 6 4 23 10 38 14 16 4
53 31 82 60 64 63 85 121 79 215 -9 135 -76 188 -317 250 -129 34 -143 39
-171 70 -17 19 -18 24 -6 47 8 14 22 30 32 35 23 12 118 18 118 7 0 -4 6 -8
13 -8 23 -1 57 -38 57 -64 0 -38 20 -42 21 -4 2 30 2 31 6 6 5 -31 19 -37 26
-10 4 16 5 16 6 -1 1 -17 27 -19 177 -8 18 1 6 69 -20 116 -26 48 -105 99
-178 114 -58 13 -227 13 -281 0z m240 -101 c-3 -7 -5 -2 -5 12 0 14 2 19 5 13
2 -7 2 -19 0 -25z m30 0 c-3 -8 -6 -5 -6 6 -1 11 2 17 5 13 3 -3 4 -12 1 -19z
m0 -70 c-3 -8 -6 -5 -6 6 -1 11 2 17 5 13 3 -3 4 -12 1 -19z"/>
<path d="M11926 2042 c-4 -8 -8 -395 -6 -734 0 -116 0 -118 23 -115 21 2 22
-2 25 -68 3 -97 8 -115 33 -115 20 0 21 5 18 93 -3 75 0 92 11 93 8 1 45 2 83
3 l67 1 0 40 c0 31 3 38 15 34 8 -4 15 -3 15 1 0 3 -7 13 -15 21 -18 19 -20
60 -2 67 9 4 9 8 -2 15 -11 8 -12 27 -7 88 3 44 6 86 5 94 -1 8 -2 122 -3 253
l-1 237 -127 0 c-70 0 -129 -4 -132 -8z"/>
<path d="M12352 1618 c3 -379 5 -433 18 -429 8 2 62 4 120 5 l105 1 2 224 c1
123 4 229 6 234 1 5 29 -30 61 -76 32 -47 69 -98 82 -112 13 -14 24 -30 24
-34 0 -4 9 -16 20 -26 11 -10 17 -21 14 -26 -2 -4 5 -13 16 -19 11 -6 19 -14
19 -18 -3 -20 3 -32 16 -32 8 0 15 -8 15 -19 0 -10 7 -24 15 -31 8 -7 15 -18
15 -25 0 -29 33 -39 143 -42 62 -1 118 1 124 5 9 6 13 113 15 430 l3 422 -127
0 -128 0 0 -232 -1 -233 -25 30 c-13 17 -29 29 -34 27 -6 -1 -9 1 -8 5 4 14
-13 53 -23 53 -5 0 -9 6 -9 14 0 8 -6 21 -12 28 -7 7 -26 33 -43 58 -16 25
-33 47 -37 48 -5 2 -8 8 -8 12 0 5 -28 50 -62 99 l-62 91 -128 0 -128 0 2
-432z"/>
<path d="M14260 1618 l0 -433 130 3 130 3 1 102 c0 56 2 249 2 429 l2 328
-132 0 -133 0 0 -432z"/>
<path d="M14965 2037 c-162 -41 -268 -166 -296 -348 -15 -96 -1 -197 40 -286
29 -62 79 -123 100 -123 6 0 11 -4 11 -9 0 -14 102 -60 156 -71 27 -5 99 -7
159 -5 106 4 122 6 155 17 8 3 34 11 58 19 24 7 71 29 105 49 l62 36 1 140 c1
78 4 160 8 183 l6 41 -202 -2 -203 -3 -3 -83 -3 -83 91 3 90 3 0 -51 c0 -48
-2 -51 -36 -68 -91 -43 -211 -40 -264 7 -63 55 -90 147 -79 264 13 138 76 208
189 214 25 2 48 7 52 13 5 7 8 5 8 -4 0 -8 14 -21 31 -29 17 -7 37 -28 47 -47
10 -22 21 -33 30 -29 8 3 35 8 60 11 153 19 195 39 157 77 -8 9 -15 21 -15 27
0 26 -67 92 -119 118 -52 25 -66 27 -201 29 -92 2 -163 -2 -195 -10z"/>
<path d="M15680 1619 c0 -407 1 -431 18 -424 9 4 68 6 130 5 l112 -1 1 88 c1
48 1 91 0 96 -1 4 -2 39 -2 78 -1 50 3 74 12 80 8 5 76 9 152 9 l137 0 0 -174
0 -174 130 -1 130 -2 0 410 c0 225 3 416 6 425 5 14 -10 16 -130 16 l-136 0 0
-150 0 -150 -144 0 c-167 0 -156 -7 -156 106 0 38 -1 91 -3 117 -1 27 1 51 6
54 27 16 -8 23 -128 23 l-135 0 0 -431z"/>
<path d="M16667 2033 c-4 -3 -7 -49 -7 -102 l0 -96 137 0 138 0 3 -328 c1
-181 6 -326 11 -323 5 3 61 6 125 7 l116 1 1 136 c0 76 0 221 -1 325 l-1 187
23 1 c13 0 73 0 135 -1 l112 -1 3 83 c2 46 7 91 12 101 8 16 -15 17 -396 17
-223 0 -408 -3 -411 -7z"/>
<path d="M10900 1800 c0 -5 7 -10 15 -10 8 0 15 5 15 10 0 6 -7 10 -15 10 -8
0 -15 -4 -15 -10z"/>
<path d="M10917 1744 c-14 -14 -7 -35 11 -32 9 2 17 10 17 17 0 16 -18 25 -28
15z"/>
<path d="M11220 1539 c0 -5 5 -7 10 -4 6 3 10 8 10 11 0 2 -4 4 -10 4 -5 0
-10 -5 -10 -11z"/>
<path d="M11371 1466 c-14 -16 -9 -46 7 -46 5 0 15 7 22 16 11 12 11 18 -2 30
-13 13 -16 13 -27 0z"/>
<path d="M12190 1420 c0 -5 5 -10 10 -10 6 0 10 5 10 10 0 6 -4 10 -10 10 -5
0 -10 -4 -10 -10z"/>
<path d="M11220 1410 c0 -5 5 -10 11 -10 5 0 7 5 4 10 -3 6 -8 10 -11 10 -2 0
-4 -4 -4 -10z"/>
<path d="M11320 1405 c-7 -8 -24 -16 -39 -16 -16 -1 -19 -3 -9 -6 9 -2 15 -10
12 -18 -8 -21 9 -25 55 -13 23 6 38 14 33 17 -5 3 -11 15 -13 25 -5 25 -23 30
-39 11z"/>
<path d="M11390 1300 l0 -110 115 0 115 0 0 110 0 110 -115 0 -115 0 0 -110z"/>
<path d="M12217 1256 c-12 -9 -14 -16 -8 -21 6 -3 11 -1 11 6 0 8 6 6 18 -4
34 -31 58 -15 26 17 -19 19 -24 19 -47 2z"/>
<path d="M11262 1248 c6 -18 28 -21 28 -4 0 9 -7 16 -16 16 -9 0 -14 -5 -12
-12z"/>
<path d="M11063 1210 c-13 -5 -23 -12 -23 -16 0 -3 6 -4 14 -1 10 4 12 0 9
-14 -4 -13 -1 -18 8 -14 8 3 14 16 14 30 0 14 0 25 0 24 0 0 -10 -4 -22 -9z"/>
<path d="M11210 1170 c0 -5 5 -10 11 -10 5 0 7 5 4 10 -3 6 -8 10 -11 10 -2 0
-4 -4 -4 -10z"/>
<path d="M11115 1160 c-11 -4 -24 -5 -29 -2 -5 3 -6 0 -2 -6 9 -14 26 -15 46
-2 20 12 10 19 -15 10z"/>
<path d="M11160 1151 c0 -6 5 -13 10 -16 6 -3 10 1 10 9 0 9 -4 16 -10 16 -5
0 -10 -4 -10 -9z"/>
<path d="M12577 1153 c-15 -14 -7 -43 12 -43 26 0 36 17 21 35 -14 16 -23 19
-33 8z"/>
<path d="M11070 1120 c0 -6 -4 -9 -8 -6 -5 3 -16 -4 -26 -16 -16 -18 -16 -22
-3 -36 10 -9 24 -12 41 -8 34 8 33 24 -1 29 -27 4 -27 4 -5 12 23 8 28 20 12
30 -5 3 -10 1 -10 -5z"/>
<path d="M11117 1117 c-3 -7 1 -21 9 -32 20 -27 41 -6 25 24 -13 24 -27 27
-34 8z"/>
<path d="M11220 1110 c0 -5 5 -10 10 -10 6 0 10 5 10 10 0 6 -4 10 -10 10 -5
0 -10 -4 -10 -10z"/>
<path d="M11007 944 c-8 -8 1 -24 14 -24 5 0 9 7 9 15 0 15 -12 20 -23 9z"/>
</g>
</svg>
