<?xml version="1.0" standalone="no"?>
<!DOCTYPE svg PUBLIC "-//W3C//DTD SVG 20010904//EN"
 "http://www.w3.org/TR/2001/REC-SVG-20010904/DTD/svg10.dtd">
<svg version="1.0" xmlns="http://www.w3.org/2000/svg"
 width="2300.000000pt" height="300.000000pt" viewBox="0 0 2300.000000 300.000000"
 preserveAspectRatio="xMidYMid meet">

<g transform="translate(0.000000,300.000000) scale(0.100000,-0.100000)"
fill="#000000" stroke="none">
<path d="M2070 2369 c-190 -18 -399 -75 -599 -164 -133 -59 -240 -85 -361 -86
l-95 -1 55 -26 c48 -23 67 -26 150 -25 119 1 205 19 434 93 263 85 322 95 556
95 228 -1 269 -9 569 -110 102 -35 221 -71 265 -80 89 -20 185 -16 232 8 l29
15 -50 6 c-168 22 -286 57 -522 157 -190 81 -273 105 -403 119 -107 11 -138
11 -260 -1z"/>
<path d="M2020 2154 c-92 -18 -239 -66 -422 -138 -245 -97 -352 -130 -493
-151 -55 -8 -104 -15 -110 -15 -6 0 -9 -31 -7 -80 l4 -81 41 31 c87 64 145 61
278 -16 168 -97 378 -172 573 -206 158 -27 397 -22 520 11 44 12 82 19 84 16
3 -3 -6 -18 -20 -33 -14 -15 -129 -144 -255 -287 -127 -143 -250 -276 -274
-296 -185 -150 -400 -229 -546 -199 -145 30 -223 116 -223 245 0 115 52 185
142 193 43 3 59 0 87 -20 50 -34 50 -47 -1 -41 -60 7 -96 -10 -114 -52 -19
-46 -4 -106 36 -147 54 -54 148 -27 201 58 57 93 -1 232 -118 281 -47 19 -131
16 -183 -8 -87 -39 -123 -93 -141 -210 -19 -123 19 -237 103 -316 65 -59 128
-77 263 -76 129 2 232 25 344 78 161 77 265 173 472 437 77 97 178 218 225
268 83 87 203 190 220 190 5 0 9 -168 10 -373 0 -204 4 -407 8 -450 l8 -79 37
79 c88 188 204 384 338 573 17 23 17 24 -2 16 -104 -39 -204 -27 -264 33 -85
85 -73 229 26 310 63 52 255 121 339 121 38 0 42 2 48 31 3 17 6 35 6 39 0 4
-42 10 -92 13 -122 8 -208 32 -435 121 -296 118 -339 128 -528 132 -88 1 -171
0 -185 -2z m-4 -141 c-82 -125 -30 -277 119 -345 70 -32 190 -32 260 0 59 27
110 73 136 124 25 50 25 141 0 191 l-19 38 21 -7 c12 -3 96 -34 187 -69 91
-35 184 -69 208 -76 23 -6 42 -15 42 -19 0 -3 -37 -27 -82 -52 -260 -144 -457
-205 -693 -215 -251 -10 -460 38 -821 188 l-78 32 100 33 c54 17 176 61 270
97 168 65 323 115 357 116 15 1 14 -3 -7 -36z m354 17 c0 -5 -11 -10 -25 -10
-30 0 -31 -7 -4 -36 41 -44 19 -121 -44 -149 -18 -7 -59 -17 -92 -22 -51 -7
-60 -11 -60 -28 0 -21 -5 -20 159 -42 33 -4 61 -13 63 -18 2 -6 -16 -18 -39
-26 -75 -28 -234 1 -251 45 -8 21 27 62 59 70 l27 7 -32 20 c-44 26 -66 80
-49 116 17 34 56 63 99 73 50 12 189 12 189 0z"/>
<path d="M2174 1989 c-12 -14 -19 -36 -19 -64 0 -51 26 -85 65 -85 40 0 63 32
63 85 0 76 -64 114 -109 64z"/>
<path d="M4192 1758 c138 -216 325 -511 417 -655 91 -144 170 -261 176 -260 5
2 134 199 287 438 153 239 341 532 418 652 l139 217 -177 0 -177 0 -165 -277
c-91 -152 -202 -339 -247 -415 l-82 -140 -21 44 c-12 24 -121 211 -243 416
l-221 372 -178 0 -177 0 251 -392z"/>
<path d="M5770 1545 l0 -605 150 0 150 0 0 605 0 605 -150 0 -150 0 0 -605z"/>
<path d="M6645 2133 c-190 -40 -312 -159 -350 -340 -9 -42 -15 -127 -15 -225
l0 -158 600 0 c330 0 600 -4 600 -9 0 -18 -24 -78 -43 -105 -11 -15 -38 -37
-61 -47 -38 -17 -76 -19 -568 -19 l-528 0 0 -145 0 -145 523 0 c571 0 603 3
722 58 110 52 178 131 217 252 17 53 22 99 26 248 l4 182 -601 0 c-598 0 -601
0 -601 20 0 54 56 128 113 149 19 7 206 11 553 11 l524 0 0 145 0 145 -522 -1
c-424 0 -536 -3 -593 -16z"/>
<path d="M7990 1545 l0 -605 150 0 150 0 0 605 0 605 -150 0 -150 0 0 -605z"/>
<path d="M8935 2135 c-169 -37 -304 -142 -375 -291 -54 -113 -60 -162 -60
-551 l0 -353 553 0 c616 0 635 2 767 67 142 69 239 202 274 375 13 61 16 148
16 423 l0 345 -557 -1 c-421 0 -573 -4 -618 -14z m873 -502 c-3 -206 -5 -232
-24 -273 -25 -53 -55 -83 -109 -107 -36 -16 -81 -18 -457 -21 l-418 -3 0 209
c0 312 28 377 175 413 17 4 212 7 433 8 l404 1 -4 -227z"/>
<path d="M10330 1545 l0 -605 145 0 145 0 0 439 0 439 68 -25 c184 -67 383
-204 583 -403 117 -116 285 -309 354 -407 l30 -43 163 0 162 0 0 605 0 605
-150 0 -151 0 3 -392 3 -393 -160 160 c-242 243 -455 405 -690 522 -190 96
-216 103 -370 103 l-135 0 0 -605z"/>
<path d="M12910 1545 l0 -605 150 0 150 0 0 605 0 605 -150 0 -150 0 0 -605z"/>
<path d="M13440 1545 l0 -605 145 0 145 0 0 439 0 439 68 -25 c184 -67 383
-204 583 -403 117 -116 285 -309 354 -407 l30 -43 163 0 162 0 0 605 0 605
-150 0 -151 0 3 -392 3 -393 -160 160 c-242 243 -455 405 -690 522 -190 96
-216 103 -370 103 l-135 0 0 -605z"/>
<path d="M15665 2133 c-190 -40 -312 -159 -350 -340 -9 -42 -15 -127 -15 -225
l0 -158 600 0 c330 0 600 -4 600 -9 0 -18 -24 -78 -43 -105 -11 -15 -38 -37
-61 -47 -38 -17 -76 -19 -568 -19 l-528 0 0 -145 0 -145 523 0 c571 0 603 3
722 58 110 52 178 131 217 252 17 53 22 99 26 248 l4 182 -601 0 c-598 0 -601
0 -601 20 0 54 56 128 113 149 19 7 206 11 553 11 l524 0 0 145 0 145 -522 -1
c-424 0 -536 -3 -593 -16z"/>
<path d="M17000 1545 l0 -605 150 0 150 0 0 605 0 605 -150 0 -150 0 0 -605z"/>
<path d="M17951 2134 c-165 -35 -301 -138 -366 -276 -58 -125 -65 -184 -65
-573 l0 -345 795 0 795 0 0 370 0 370 -255 0 -255 0 0 -135 0 -134 108 -3 107
-3 3 -87 3 -88 -501 0 -502 0 4 233 c3 220 4 234 27 280 27 55 75 91 141 106
28 7 252 11 583 11 l537 0 0 145 0 145 -547 -1 c-429 0 -562 -4 -612 -15z"/>
<path d="M19320 1545 l0 -605 150 0 150 0 0 235 0 235 465 0 465 0 0 -235 0
-235 150 0 150 0 0 605 0 605 -150 0 -150 0 0 -235 0 -235 -465 0 -465 0 0
235 0 235 -150 0 -150 0 0 -605z"/>
<path d="M21374 2135 c-131 -28 -251 -119 -304 -229 -22 -48 -60 -186 -60
-221 0 -3 65 -5 144 -5 l143 0 7 38 c9 56 39 97 88 121 38 18 62 21 176 21
l132 0 0 -460 0 -460 150 0 150 0 0 460 0 460 280 0 280 0 0 145 0 145 -562
-1 c-428 0 -578 -4 -624 -14z"/>
</g>
</svg>
