<?xml version="1.0" standalone="no"?>
<!DOCTYPE svg PUBLIC "-//W3C//DTD SVG 20010904//EN"
 "http://www.w3.org/TR/2001/REC-SVG-20010904/DTD/svg10.dtd">
<svg version="1.0" xmlns="http://www.w3.org/2000/svg"
 width="2300.000000pt" height="250.000000pt" viewBox="0 0 2300.000000 250.000000"
 preserveAspectRatio="xMidYMid meet">

<g transform="translate(0.000000,250.000000) scale(0.100000,-0.100000)"
fill="#000000" stroke="none">
<path d="M873 1944 c7 -192 7 -195 -13 -189 -20 6 -20 2 -20 -321 l0 -327 25
23 c25 23 25 27 27 189 l2 166 3 -163 c4 -217 22 -205 25 16 l2 167 6 -160 6
-160 4 165 4 165 6 -160 c3 -88 8 -153 12 -145 4 8 9 83 10 165 3 121 5 92 12
-154 5 -198 5 -306 -1 -310 -6 -3 -13 -16 -17 -28 -7 -20 -15 -23 -69 -25
l-62 -2 58 -3 c73 -5 75 -23 2 -23 -30 0 -55 -4 -55 -10 0 -5 23 -10 50 -10
28 0 50 -4 50 -10 0 -5 -22 -10 -50 -10 l-50 0 0 -95 0 -95 55 0 c73 0 71 -18
-2 -23 l-58 -3 61 -2 c55 -2 62 -5 72 -27 7 -14 12 -30 12 -35 0 -6 -31 -10
-70 -10 l-70 0 0 -65 0 -65 109 0 110 0 4 33 4 32 1 -32 2 -33 192 1 c137 0
195 4 200 12 6 9 8 9 8 0 0 -20 28 -15 33 5 4 16 5 16 6 0 1 -14 10 -18 40
-18 37 0 40 2 44 33 l4 32 1 -32 c2 -25 7 -33 21 -33 16 0 21 8 24 43 l4 42 3
-45 3 -45 7 50 7 50 3 -50 3 -50 7 55 7 55 1 -52 c2 -45 5 -53 22 -53 17 0 20
8 23 68 l3 67 2 -67 c2 -65 3 -68 27 -68 24 0 24 2 28 88 l3 87 2 -87 c2 -70
5 -88 17 -88 11 0 15 21 18 103 l3 102 2 -102 2 -103 80 0 80 0 0 186 c0 177
1 186 20 191 11 3 20 14 20 24 0 12 7 19 20 19 15 0 20 7 20 25 0 16 6 25 15
25 8 0 15 9 15 20 0 11 7 20 15 20 9 0 15 9 15 21 0 12 8 23 20 26 11 3 20 14
20 24 0 12 7 19 19 19 14 0 21 8 23 28 2 19 9 28 25 30 15 2 23 11 25 30 3 26
5 27 79 30 l75 3 22 45 c14 27 22 64 22 94 0 27 5 52 11 56 8 5 10 -11 7 -55
l-4 -61 43 0 43 0 0 -135 0 -135 -109 0 -108 0 -23 -62 c-12 -35 -38 -96 -56
-137 -19 -41 -34 -75 -34 -77 0 -2 77 -4 170 -4 l170 0 0 -25 0 -25 -183 0
-183 0 -32 -65 c-18 -36 -32 -81 -32 -100 l0 -35 515 0 515 0 0 40 0 40 -291
0 c-261 0 -291 2 -285 16 3 9 6 18 6 20 0 2 128 4 285 4 l285 0 0 95 0 95
-230 0 c-139 0 -230 4 -230 10 0 5 5 21 12 35 l11 25 219 0 c139 0 218 4 218
10 0 6 -75 10 -205 10 -118 0 -205 4 -205 9 0 40 5 41 211 41 126 0 199 4 199
10 0 6 -68 10 -185 10 -158 0 -185 2 -185 15 0 8 5 15 10 15 6 0 10 7 10 15 0
8 5 15 10 15 6 0 10 7 10 15 0 8 5 15 10 15 6 0 10 7 10 15 0 8 5 15 10 15 6
0 10 7 10 15 0 8 5 15 10 15 6 0 10 7 10 15 0 13 22 15 135 15 113 0 135 2
135 15 0 12 -19 15 -110 15 -103 0 -110 1 -110 20 0 11 7 20 15 20 13 0 15 35
17 243 1 133 4 191 5 130 3 -100 6 -114 23 -123 19 -10 20 -7 20 115 0 77 4
125 10 125 6 0 10 -49 10 -128 0 -128 0 -129 25 -140 14 -7 41 -12 60 -12 l35
0 0 170 0 170 -30 0 c-16 0 -30 5 -30 10 0 6 -20 10 -45 10 l-45 0 0 40 c0 22
5 40 10 40 6 0 10 16 10 35 0 19 5 35 10 35 6 0 10 -16 10 -35 0 -33 2 -35 30
-33 28 2 30 5 32 48 l1 45 7 -50 7 -50 3 55 3 55 7 -60 c4 -38 7 17 8 148 l2
207 -40 0 -40 0 0 -140 c0 -87 -4 -140 -10 -140 -6 0 -10 53 -10 140 l0 140
-25 0 -24 0 -4 -137 -3 -138 -2 138 c-2 129 -3 137 -22 137 -18 0 -20 -8 -23
-132 l-3 -133 -2 133 c-2 108 -5 132 -17 132 -12 0 -15 -23 -18 -127 l-3 -128
-2 128 -2 127 -45 0 -44 0 -4 -112 -3 -113 -2 113 -2 112 -35 0 -34 0 -4 -97
-3 -98 -2 98 c-2 89 -4 97 -22 97 -17 0 -20 -8 -23 -87 l-3 -88 -2 88 c-2 79
-4 87 -22 87 -17 0 -20 -8 -23 -77 l-3 -78 -2 78 -2 77 -30 0 c-29 0 -29 -1
-33 -62 l-3 -63 -2 63 c-2 62 -2 62 -32 62 -29 0 -30 -2 -32 -47 l-1 -48 -7
50 -6 50 -5 -45 -6 -45 -1 43 c-2 34 -6 42 -21 42 -15 0 -21 -8 -24 -32 l-4
-33 -1 33 c-2 39 -19 43 -25 5 l-4 -28 -2 28 c-1 26 -3 27 -55 27 -34 0 -56
-5 -59 -12 -4 -10 -7 -10 -14 -1 -12 17 -414 17 -426 0 -7 -9 -10 -9 -14 1 -7
18 -41 15 -46 -5 -4 -17 -5 -17 -6 0 -2 26 -39 22 -44 -5 l-4 -23 -2 23 c-2
34 -39 30 -44 -5 l-4 -28 -2 28 c-2 39 -29 35 -34 -5 l-4 -33 -1 33 c-2 28 -5
32 -31 32 -28 0 -30 -3 -34 -42 l-4 -43 -1 43 c-3 57 -20 53 -25 -5 l-3 -48
-2 48 c-3 64 -20 60 -25 -5 l-3 -53 -2 53 c-3 70 -20 66 -25 -5 l-3 -58 -2 58
c-2 49 -5 57 -22 57 -17 0 -20 -8 -23 -67 l-3 -68 -2 68 c-2 59 -4 67 -22 67
-17 0 -20 -8 -23 -77 l-3 -78 -2 78 -2 77 -30 0 -29 0 -4 -92 -3 -93 -4 95 -4
95 -6 -100 -6 -100 -4 100 -4 100 -6 -105 -6 -105 -2 103 c-1 57 -6 102 -12
102 -5 0 -11 -47 -13 -107 l-3 -108 -2 108 c-2 107 -2 107 -27 107 -24 0 -24
0 -28 -117 l-3 -118 -2 118 c-2 95 -5 117 -17 117 -12 0 -15 -23 -18 -122 l-3
-123 -2 123 c-2 114 -3 122 -22 122 -18 0 -20 -8 -23 -127 l-3 -128 -2 128 -2
127 -30 0 -30 0 0 -130 0 -130 -55 0 -55 0 0 130 0 130 -27 0 -26 0 6 -196z
m1157 51 c0 -20 -5 -25 -25 -25 -20 0 -25 5 -25 25 0 20 5 25 25 25 20 0 25
-5 25 -25z m120 13 c0 -7 3 -30 6 -50 5 -25 3 -38 -5 -38 -6 0 -11 11 -11 25
0 18 -5 25 -20 25 -15 0 -20 7 -20 25 0 20 5 25 25 25 14 0 25 -6 25 -12z
m-263 -35 c-3 -10 -5 -4 -5 12 0 17 2 24 5 18 2 -7 2 -21 0 -30z m363 12 c0
-14 -4 -25 -10 -25 -5 0 -10 -11 -10 -25 0 -14 -4 -25 -10 -25 -5 0 -10 14
-10 30 0 17 5 30 10 30 6 0 10 9 10 20 0 11 5 20 10 20 6 0 10 -11 10 -25z
m-433 -62 c-2 -16 -4 -3 -4 27 0 30 2 43 4 28 2 -16 2 -40 0 -55z m490 -5 c-2
-18 -4 -6 -4 27 0 33 2 48 4 33 2 -15 2 -42 0 -60z m-529 -3 l0 -30 -8 30 c-4
17 -8 41 -8 55 l0 25 8 -25 c4 -14 8 -38 8 -55z m579 28 c-3 -10 -5 -2 -5 17
0 19 2 27 5 18 2 -10 2 -26 0 -35z m-643 -22 c-4 -28 -9 -50 -11 -47 -3 3 -2
28 2 56 4 28 9 49 12 47 2 -3 1 -28 -3 -56z m-37 -33 c-2 -18 -4 -6 -4 27 0
33 2 48 4 33 2 -15 2 -42 0 -60z m263 57 c0 -14 -4 -25 -10 -25 -5 0 -10 11
-10 25 0 14 5 25 10 25 6 0 10 -11 10 -25z m497 -22 c-3 -10 -5 -2 -5 17 0 19
2 27 5 18 2 -10 2 -26 0 -35z m-570 0 c-3 -10 -5 -4 -5 12 0 17 2 24 5 18 2
-7 2 -21 0 -30z m400 -10 c-3 -10 -5 -2 -5 17 0 19 2 27 5 18 2 -10 2 -26 0
-35z m-649 -48 l0 -30 -8 30 c-4 17 -8 44 -8 60 l0 30 8 -30 c4 -16 8 -43 8
-60z m877 20 c-4 -31 -10 -54 -12 -51 -3 3 -2 30 2 61 3 31 9 54 12 52 2 -3 1
-31 -2 -62z m-920 -10 c-4 -31 -9 -54 -12 -51 -3 2 -1 30 2 61 4 31 9 54 12
51 3 -2 1 -30 -2 -61z m162 18 c-3 -10 -5 -2 -5 17 0 19 2 27 5 18 2 -10 2
-26 0 -35z m640 -10 c-3 -10 -5 -2 -5 17 0 19 2 27 5 18 2 -10 2 -26 0 -35z
m30 -10 c-3 -10 -5 -2 -5 17 0 19 2 27 5 18 2 -10 2 -26 0 -35z m-760 -10 c-3
-10 -5 -2 -5 17 0 19 2 27 5 18 2 -10 2 -26 0 -35z m810 -5 c-2 -13 -4 -5 -4
17 -1 22 1 32 4 23 2 -10 2 -28 0 -40z m158 -18 c-4 -34 -9 -59 -12 -56 -3 3
-2 32 2 66 4 34 9 59 12 56 3 -3 2 -32 -2 -66z m43 -55 c0 -22 -3 -18 -9 15
-4 25 -7 59 -7 75 0 22 3 18 9 -15 4 -25 7 -58 7 -75z m-1234 36 c-4 -34 -9
-60 -11 -57 -3 3 -2 32 2 66 4 34 9 59 12 57 2 -3 1 -33 -3 -66z m1264 -46 c0
-22 -3 -18 -9 15 -4 25 -7 59 -7 75 0 22 3 18 9 -15 4 -25 7 -58 7 -75z
m-1291 58 c-3 -10 -5 -2 -5 17 0 19 2 27 5 18 2 -10 2 -26 0 -35z m1140 -5
c-2 -13 -4 -5 -4 17 -1 22 1 32 4 23 2 -10 2 -28 0 -40z m170 0 c-2 -13 -4 -5
-4 17 -1 22 1 32 4 23 2 -10 2 -28 0 -40z m30 -65 c-2 -21 -4 -4 -4 37 0 41 2
58 4 38 2 -21 2 -55 0 -75z m-1816 32 c4 44 6 29 7 -57 1 -65 -2 -118 -7 -118
-4 0 -11 41 -15 92 -7 111 -5 178 4 88 l6 -65 5 60z m404 -10 c-4 -36 -10 -64
-12 -61 -3 2 -2 34 2 71 4 36 10 64 12 61 3 -2 2 -34 -2 -71z m192 28 c-3 -10
-5 -2 -5 17 0 19 2 27 5 18 2 -10 2 -26 0 -35z m1070 -5 c-2 -13 -4 -5 -4 17
-1 22 1 32 4 23 2 -10 2 -28 0 -40z m180 -55 c-2 -21 -4 -4 -4 37 0 41 2 58 4
38 2 -21 2 -55 0 -75z m-1480 -10 c-2 -21 -4 -4 -4 37 0 41 2 58 4 38 2 -21 2
-55 0 -75z m180 55 c-2 -13 -4 -5 -4 17 -1 22 1 32 4 23 2 -10 2 -28 0 -40z
m-520 -40 c-2 -18 -4 -6 -4 27 0 33 2 48 4 33 2 -15 2 -42 0 -60z m303 47 c0
-19 -4 -35 -10 -35 -5 0 -10 16 -10 35 0 19 5 35 10 35 6 0 10 -16 10 -35z
m1585 -40 c-4 -36 -10 -64 -12 -61 -3 3 -2 35 2 71 4 37 9 64 12 62 3 -3 2
-35 -2 -72z m-1838 -95 c0 -41 -1 -39 -7 15 -4 33 -8 80 -7 105 0 41 1 39 7
-15 4 -33 8 -80 7 -105z m201 40 c0 -32 -1 -32 -9 10 -4 25 -7 61 -7 80 0 32
1 32 9 -10 4 -25 7 -61 7 -80z m1717 35 c-4 -36 -10 -64 -12 -61 -3 3 -2 35 2
71 4 37 9 64 12 62 3 -3 2 -35 -2 -72z m-1548 13 c-2 -13 -4 -5 -4 17 -1 22 1
32 4 23 2 -10 2 -28 0 -40z m509 15 c-82 -125 -30 -277 119 -345 70 -32 190
-32 260 0 59 27 110 73 136 124 25 50 25 141 0 191 l-19 38 21 -7 c12 -3 96
-34 187 -69 91 -35 184 -69 208 -76 23 -6 42 -15 42 -19 0 -3 -37 -27 -82 -52
-260 -144 -457 -205 -693 -215 -251 -10 -460 38 -821 188 l-78 32 100 33 c54
17 176 61 270 97 168 65 323 115 357 116 15 1 14 -3 -7 -36z m1124 2 c0 -19
-4 -35 -10 -35 -5 0 -10 16 -10 35 0 19 5 35 10 35 6 0 10 -16 10 -35z m-770
15 c0 -5 -11 -10 -25 -10 -30 0 -31 -7 -4 -36 41 -44 19 -121 -44 -149 -18 -7
-59 -17 -92 -22 -51 -7 -60 -11 -60 -28 0 -21 -5 -20 159 -42 33 -4 61 -13 63
-18 2 -6 -16 -18 -39 -26 -75 -28 -234 1 -251 45 -8 21 27 62 59 70 l27 7 -32
20 c-44 26 -66 80 -49 116 17 34 56 63 99 73 50 12 189 12 189 0z m567 -62
c-2 -13 -4 -3 -4 22 0 25 2 35 4 23 2 -13 2 -33 0 -45z m70 -20 c-2 -13 -4 -3
-4 22 0 25 2 35 4 23 2 -13 2 -33 0 -45z m-1740 -25 c-2 -16 -4 -5 -4 22 0 28
2 40 4 28 2 -13 2 -35 0 -50z m40 5 c-2 -13 -4 -3 -4 22 0 25 2 35 4 23 2 -13
2 -33 0 -45z m1790 0 c-2 -13 -4 -3 -4 22 0 25 2 35 4 23 2 -13 2 -33 0 -45z
m-1910 -25 c-2 -16 -4 -3 -4 27 0 30 2 43 4 28 2 -16 2 -40 0 -55z m1908 -333
c-4 -121 -10 -219 -12 -216 -3 3 -2 104 2 226 4 122 10 219 12 216 3 -3 2
-104 -2 -226z m-28 53 c-2 -32 -3 -6 -3 57 0 63 1 89 3 58 2 -32 2 -84 0 -115z
m-20 -183 l0 -105 -8 130 c-3 72 -6 173 -6 225 l1 95 6 -120 c4 -66 7 -167 7
-225z m-57 215 l0 -105 -100 0 c-84 0 -100 2 -100 16 0 13 14 15 95 12 l95 -3
0 93 c0 50 2 92 5 92 3 0 5 -47 5 -105z m-1752 -41 c1 71 5 127 8 123 3 -3 2
-120 -2 -259 l-9 -253 -6 150 c-4 83 -6 202 -6 265 l1 115 6 -135 6 -135 2
129z m1702 51 l0 -75 -70 0 c-40 0 -70 4 -70 10 0 6 25 10 55 10 l55 0 2 63 1
62 7 -65 7 -65 1 68 c3 91 12 85 12 -8z m-1673 -308 c-1 -67 -3 -9 -3 128 0
138 2 192 3 122 2 -71 2 -183 0 -250z m1633 313 l0 -50 -40 0 c-29 0 -40 4
-40 15 0 10 11 15 35 15 33 0 35 2 35 35 0 19 2 35 5 35 3 0 5 -22 5 -50z
m-1583 -142 c-2 -35 -3 -9 -3 57 0 66 1 94 3 63 2 -32 2 -86 0 -120z m180 -85
c-2 -32 -3 -6 -3 57 0 63 1 89 3 58 2 -32 2 -84 0 -115z m65 -100 c22 -27 27
-9 31 110 l3 122 2 -132 c3 -172 20 -176 25 -5 l3 127 2 -137 c3 -179 20 -183
25 -5 l3 132 2 -140 2 -141 30 -17 30 -18 2 148 2 148 6 -154 c3 -109 9 -156
17 -158 9 -3 13 33 16 149 l3 153 2 -161 c2 -132 5 -163 17 -168 12 -4 15 19
18 157 l3 162 2 -166 c1 -91 5 -169 10 -175 4 -5 5 -88 2 -184 l-6 -175 -2
143 -2 142 -140 0 -140 0 -6 25 c-3 14 -10 25 -15 25 -5 0 -9 52 -9 115 0 63
4 115 8 115 4 0 13 -5 20 -12 9 -9 12 15 14 107 l2 120 3 -119 c2 -67 8 -126
15 -133z m1555 75 c-2 -35 -3 -9 -3 57 0 66 1 94 3 63 2 -32 2 -86 0 -120z
m-440 115 c-3 -10 -5 -4 -5 12 0 17 2 24 5 18 2 -7 2 -21 0 -30z m-232 -33
c15 13 17 12 14 -5 -3 -12 -14 -21 -27 -23 -17 -3 -22 1 -22 20 0 18 2 20 9 9
8 -13 12 -13 26 -1z m-590 -335 c-4 -179 -10 -324 -12 -321 -3 3 -2 152 2 331
4 179 10 324 12 321 3 -3 2 -152 -2 -331z m1077 268 c-5 -98 -10 -109 -11 -25
l-1 72 -65 0 c-37 0 -65 4 -65 10 0 6 31 10 73 10 l73 0 -4 -67z m-1735 -155
c-1 -40 -3 -8 -3 72 0 80 2 112 3 73 2 -40 2 -106 0 -145z m733 72 l0 -140 35
17 35 17 0 118 c0 72 4 118 10 118 6 0 10 -45 10 -115 l0 -116 100 53 100 53
0 63 c0 48 3 62 15 62 11 0 15 -12 15 -50 0 -27 2 -50 5 -50 3 0 17 7 30 16
19 13 25 26 27 58 l1 41 4 -37 4 -38 30 16 30 15 -3 -33 c-3 -30 -6 -33 -40
-36 -36 -3 -37 -5 -40 -45 -3 -39 -5 -42 -35 -45 -30 -3 -33 -6 -33 -36 0 -39
-15 -56 -51 -56 -25 0 -28 -4 -31 -37 -3 -36 -5 -38 -40 -41 -36 -3 -37 -5
-40 -45 l-3 -42 -62 -3 -63 -3 0 -59 c0 -32 -4 -62 -10 -65 -6 -4 -10 33 -10
104 0 91 -3 111 -15 111 -12 0 -15 -23 -18 -127 -3 -128 -3 -128 -5 33 -2 136
0 163 13 168 12 4 15 31 15 151 0 90 4 145 10 145 6 0 10 -53 10 -140z m-763
-87 c-1 -43 -3 -10 -3 72 0 83 2 118 3 78 2 -40 2 -107 0 -150z m200 30 c-2
-32 -3 -6 -3 57 0 63 1 89 3 58 2 -32 2 -84 0 -115z m1530 85 c-2 -18 -4 -6
-4 27 0 33 2 48 4 33 2 -15 2 -42 0 -60z m-1500 -95 c-2 -32 -3 -6 -3 57 0 63
1 89 3 58 2 -32 2 -84 0 -115z m1480 95 c-2 -13 -4 -3 -4 22 0 25 2 35 4 23 2
-13 2 -33 0 -45z m-1410 -135 c-2 -32 -3 -6 -3 57 0 63 1 89 3 58 2 -32 2 -84
0 -115z m-157 -130 c-1 -52 -27 -80 -83 -88 -32 -5 -47 -4 -47 4 0 6 9 11 20
11 23 0 100 73 100 95 0 8 2 15 5 15 3 0 5 -17 5 -37z m37 -10 c-3 -10 -5 -2
-5 17 0 19 2 27 5 18 2 -10 2 -26 0 -35z m-107 -8 c0 -16 -6 -25 -15 -25 -18
0 -20 21 -3 38 17 17 18 16 18 -13z m560 -15 c0 -6 -50 -10 -130 -10 -80 0
-130 4 -130 10 0 6 50 10 130 10 80 0 130 -4 130 -10z m-580 -90 c0 -5 -11
-10 -25 -10 -14 0 -25 5 -25 10 0 6 11 10 25 10 14 0 25 -4 25 -10z m515 -10
c-3 -6 -48 -10 -101 -10 -56 0 -94 4 -94 10 0 6 40 10 101 10 64 0 98 -4 94
-10z m-22 -27 c-9 -3 -14 -35 -15 -101 l-2 -97 -6 90 -6 90 -4 -95 -4 -95 -3
83 c-2 45 -8 82 -13 82 -6 0 -11 -39 -12 -87 l-2 -88 -3 78 c-2 42 -8 77 -13
77 -6 0 -11 -37 -12 -82 l-2 -83 -3 73 c-5 98 -26 93 -34 -9 l-5 -74 -2 68
c-2 64 -3 67 -22 57 -16 -9 -20 -22 -22 -73 -1 -51 -3 -43 -11 48 -7 80 -7
110 2 113 6 2 11 10 11 18 0 11 20 14 98 13 53 0 91 -3 85 -6z m-433 -13 c0
-5 -11 -10 -25 -10 -14 0 -25 -4 -25 -10 0 -5 16 -10 35 -10 33 0 35 -2 34
-32 0 -18 -4 -55 -9 -83 l-7 -50 -2 44 c-1 61 -42 121 -82 121 -16 0 -29 5
-29 10 0 6 11 10 25 10 14 0 25 5 25 10 0 6 14 10 30 10 17 0 30 -4 30 -10z
m207 -117 c-2 -16 -4 -3 -4 27 0 30 2 43 4 28 2 -16 2 -40 0 -55z m-122 -38
c-4 -36 -10 -64 -12 -61 -3 3 -2 35 2 71 4 37 9 64 12 62 3 -3 2 -35 -2 -72z
m52 13 c-2 -13 -4 -3 -4 22 0 25 2 35 4 23 2 -13 2 -33 0 -45z m-157 5 c0 -35
0 -36 -20 -18 -11 10 -20 26 -20 37 0 11 7 18 20 18 16 0 20 -7 20 -37z m67
-55 c-2 -13 -4 -3 -4 22 0 25 2 35 4 23 2 -13 2 -33 0 -45z m70 -20 c-2 -13
-4 -3 -4 22 0 25 2 35 4 23 2 -13 2 -33 0 -45z"/>
<path d="M2034 1749 c-12 -14 -19 -36 -19 -64 0 -51 26 -85 65 -85 40 0 63 32
63 85 0 76 -64 114 -109 64z"/>
<path d="M3680 1160 l0 -660 1760 0 1760 0 0 68 0 67 45 19 c25 10 61 29 80
42 l35 23 0 -54 0 -55 1760 0 1760 0 0 280 c0 154 3 280 8 280 4 0 40 -33 80
-73 l72 -72 0 -208 0 -207 5440 0 5440 0 0 460 0 460 190 0 190 0 0 145 0 145
-5630 0 -5630 0 -2 -200 -3 -201 -77 58 -77 58 0 143 -1 142 -3600 0 -3600 0
0 -660z m3680 280 l0 -90 -80 0 -80 0 0 90 0 90 80 0 80 0 0 -90z m11040 0 l0
-90 -35 0 -35 0 0 -140 0 -140 35 0 35 0 0 -85 0 -85 -80 0 -80 0 0 315 0 315
80 0 80 0 0 -90z m-11187 -390 c-3 -11 -7 -20 -9 -20 -2 0 -4 9 -4 20 0 11 4
20 9 20 5 0 7 -9 4 -20z"/>
</g>
</svg>
