<?xml version="1.0" standalone="no"?>
<!DOCTYPE svg PUBLIC "-//W3C//DTD SVG 20010904//EN"
 "http://www.w3.org/TR/2001/REC-SVG-20010904/DTD/svg10.dtd">
<svg version="1.0" xmlns="http://www.w3.org/2000/svg"
 width="2300.000000pt" height="300.000000pt" viewBox="0 0 2300.000000 300.000000"
 preserveAspectRatio="xMidYMid meet">

<g transform="translate(0.000000,300.000000) scale(0.100000,-0.100000)"
fill="#000000" stroke="none">
<path d="M3477 2699 c-9 -5 -68 -14 -130 -19 -119 -9 -253 -28 -427 -61 -70
-13 -247 -58 -316 -79 -17 -6 -38 -10 -47 -10 -10 0 -25 -4 -35 -9 -9 -6 -44
-17 -77 -26 -33 -9 -67 -20 -75 -24 -8 -4 -42 -16 -75 -26 -33 -10 -64 -22
-70 -27 -5 -4 -17 -8 -26 -8 -10 0 -30 -6 -46 -14 -15 -8 -41 -20 -58 -26 -16
-7 -43 -18 -60 -25 -16 -7 -41 -17 -55 -23 -14 -5 -51 -22 -82 -36 -140 -63
-166 -74 -208 -91 -25 -10 -54 -21 -65 -25 -39 -14 -121 -38 -170 -50 -27 -6
-66 -15 -85 -20 -138 -35 -485 -53 -585 -30 -45 10 -48 9 -39 -13 6 -17 75
-56 157 -88 77 -31 240 -59 337 -59 134 0 381 40 620 100 19 5 53 13 75 18 22
5 51 14 65 20 14 5 45 15 70 22 25 7 61 18 80 25 19 7 58 20 85 28 72 22 117
38 137 48 10 5 25 9 34 9 9 0 28 6 42 14 33 17 169 60 242 76 30 7 66 17 80
22 25 10 76 21 175 37 28 5 68 13 90 19 39 9 92 17 315 44 137 17 554 17 690
0 166 -20 241 -32 302 -48 32 -8 67 -14 78 -14 12 0 45 -7 73 -16 29 -8 70
-20 92 -26 22 -6 51 -14 65 -18 14 -5 66 -20 115 -35 50 -14 104 -32 120 -40
17 -7 71 -25 120 -40 50 -16 95 -31 100 -35 6 -4 21 -10 35 -13 14 -3 99 -31
190 -62 161 -56 199 -68 270 -85 19 -4 49 -13 65 -18 17 -6 55 -16 85 -21 30
-6 87 -17 126 -25 93 -18 311 -14 384 6 103 30 187 76 168 93 -2 1 -68 8 -148
14 -150 11 -253 25 -305 40 -16 5 -55 15 -85 21 -30 6 -73 17 -95 24 -22 7
-80 26 -130 41 -99 30 -112 35 -168 59 -21 9 -44 16 -52 16 -9 0 -23 4 -33 9
-32 15 -87 38 -157 66 -38 15 -81 32 -95 37 -14 6 -38 16 -55 23 -16 7 -41 17
-55 23 -39 16 -90 37 -155 67 -33 15 -69 30 -80 35 -11 4 -46 20 -78 34 -32
14 -63 26 -71 26 -7 0 -16 3 -20 7 -19 19 -218 79 -336 102 -30 6 -89 17 -130
25 -41 8 -112 17 -158 20 -45 3 -91 10 -101 16 -26 13 -420 13 -444 -1z"/>
<path d="M3415 2165 c-71 -7 -151 -18 -177 -24 -27 -6 -51 -10 -55 -9 -9 3
-106 -18 -183 -39 -30 -8 -68 -18 -85 -23 -57 -14 -210 -63 -240 -75 -16 -7
-65 -25 -108 -39 -42 -14 -86 -30 -97 -36 -11 -5 -29 -14 -40 -20 -11 -5 -26
-10 -34 -10 -8 0 -27 -6 -43 -14 -15 -8 -41 -20 -58 -26 -16 -7 -43 -18 -60
-25 -16 -7 -41 -17 -55 -23 -14 -5 -56 -22 -95 -37 -70 -28 -125 -51 -157 -66
-10 -5 -26 -9 -36 -9 -10 0 -22 -4 -28 -9 -9 -10 -199 -78 -244 -88 -14 -3
-30 -9 -35 -14 -6 -4 -44 -17 -85 -28 -229 -63 -324 -86 -420 -101 -36 -6 -87
-15 -115 -20 -27 -5 -102 -14 -165 -20 -63 -6 -123 -14 -133 -17 -20 -5 -20
19 -1 -293 3 -58 10 -109 15 -114 5 -5 24 7 46 29 47 46 153 116 213 139 61
24 217 25 280 1 66 -25 88 -36 155 -76 124 -74 405 -221 475 -248 19 -8 58
-24 85 -36 28 -12 82 -34 120 -49 39 -15 78 -32 87 -37 10 -5 23 -9 29 -9 6 0
25 -6 42 -14 32 -13 163 -54 247 -76 25 -7 63 -18 85 -25 22 -7 65 -18 95 -24
30 -6 75 -16 100 -22 47 -11 85 -18 255 -44 158 -24 424 -37 615 -30 212 8
220 9 345 30 156 26 186 32 250 50 33 9 71 19 85 22 14 3 39 11 57 19 18 8 43
12 58 8 22 -5 118 18 230 57 17 6 64 19 105 30 41 11 107 36 147 55 40 19 75
34 78 34 14 0 206 100 237 124 19 14 40 26 45 26 6 0 33 15 59 33 27 18 72 43
99 56 75 35 195 110 235 148 20 18 43 33 51 33 8 0 19 4 25 9 12 12 173 65
244 80 30 7 75 17 100 22 24 6 85 12 135 15 49 3 94 9 99 14 5 5 12 47 14 93
l4 84 -133 7 c-126 6 -165 11 -329 37 -122 20 -441 110 -464 131 -6 4 -18 8
-28 8 -10 0 -26 4 -36 9 -9 5 -48 21 -87 36 -38 14 -83 32 -100 40 -16 7 -73
29 -125 50 -52 20 -104 40 -115 45 -44 19 -93 39 -160 64 -38 15 -83 33 -100
40 -45 20 -216 78 -245 83 -14 2 -34 8 -45 12 -91 36 -308 77 -510 96 -184 17
-240 17 -420 0z m-160 -330 c-92 -114 -129 -216 -129 -360 1 -86 5 -110 29
-170 39 -97 85 -164 165 -237 241 -223 635 -260 934 -88 127 73 247 220 287
352 18 59 21 87 16 176 -5 112 -22 170 -75 255 -13 22 -21 41 -19 44 8 8 167
-49 554 -198 298 -115 463 -173 581 -205 20 -6 14 -22 -15 -37 -16 -7 -82 -44
-148 -81 -546 -307 -1006 -473 -1520 -548 -122 -18 -617 -18 -745 0 -313 44
-603 112 -885 207 -187 63 -362 127 -450 165 -11 4 -101 41 -199 82 -99 41
-181 78 -183 84 -2 5 21 15 51 22 124 29 628 205 781 273 71 31 424 163 540
200 167 55 403 116 453 118 20 1 18 -4 -23 -54z m843 -7 c-3 -21 -8 -23 -60
-21 -32 1 -60 -2 -64 -8 -3 -6 13 -29 36 -52 119 -117 104 -271 -36 -367 -64
-45 -112 -58 -262 -73 -115 -12 -136 -17 -158 -38 -14 -13 -24 -32 -22 -43 8
-50 77 -68 370 -95 121 -12 189 -28 195 -47 6 -17 -58 -51 -130 -70 -95 -26
-331 -23 -415 4 -120 39 -182 91 -182 153 0 33 77 102 140 125 29 10 55 24 57
30 2 6 -15 19 -37 29 -79 36 -144 118 -157 200 -19 117 94 243 252 281 31 8
133 13 263 13 l213 1 -3 -22z"/>
<path d="M3690 1790 c-20 -5 -50 -24 -71 -47 -29 -32 -38 -52 -48 -105 -20
-117 12 -214 85 -255 50 -29 98 -29 149 0 60 33 85 90 85 194 0 48 -6 98 -14
116 -16 39 -79 97 -106 97 -10 0 -24 2 -32 4 -7 2 -29 0 -48 -4z"/>
<path d="M8975 1891 c-6 -6 -33 -11 -62 -13 l-51 -3 34 -90 c19 -49 40 -99 46
-109 20 -36 22 -140 4 -177 -16 -33 -13 -56 4 -29 8 12 10 12 10 1 0 -9 8 -12
25 -9 26 5 28 1 16 -42 -6 -20 -1 -31 22 -53 29 -27 29 -28 11 -42 -10 -8 -25
-12 -32 -10 -8 3 -18 5 -23 5 -6 0 -5 9 2 21 13 25 -6 73 -27 65 -6 -2 -21 4
-33 15 -30 28 -45 14 -24 -21 9 -16 21 -26 27 -23 5 4 7 -1 3 -10 -3 -9 -2
-19 3 -22 17 -10 11 -25 -14 -36 -14 -7 -23 -17 -20 -23 6 -17 -14 -43 -23
-30 -5 6 -24 11 -43 11 -49 0 -83 -39 -76 -86 5 -31 30 -71 45 -69 3 0 9 -1
14 -2 22 -8 35 -3 63 24 19 19 29 37 26 48 -2 10 1 18 7 18 7 0 9 -4 6 -10 -4
-6 12 -8 40 -6 69 5 57 -31 -25 -71 -33 -16 -40 -24 -28 -28 9 -4 27 -1 40 6
13 7 27 13 33 14 5 0 14 10 20 21 6 12 17 30 25 39 8 10 16 32 17 49 1 17 11
48 21 68 l19 37 11 -35 c8 -28 8 -34 -5 -34 -10 0 -13 -6 -9 -16 3 -9 6 -18 6
-20 0 -3 5 -2 11 2 8 4 7 9 -2 15 -11 7 -10 9 5 9 13 0 17 -5 13 -20 -3 -11
-1 -20 4 -20 5 0 9 -8 9 -19 0 -10 7 -24 15 -31 12 -10 16 -9 22 5 4 12 0 23
-13 32 -19 14 -19 15 1 13 11 -1 61 -2 111 -1 l90 1 16 38 c8 20 48 125 88
232 125 338 143 385 153 398 7 9 -14 12 -100 12 l-109 0 -53 -172 c-82 -267
-95 -308 -102 -308 -10 0 -37 105 -27 108 4 2 8 8 8 13 0 6 -4 8 -9 5 -8 -5
-41 68 -41 92 0 7 -5 12 -11 12 -6 0 -9 6 -6 13 2 6 -5 36 -15 64 -10 29 -18
59 -18 68 0 8 -4 15 -9 15 -5 0 -12 20 -15 45 -7 44 -8 45 -46 45 -21 0 -42 5
-45 10 -8 13 -18 13 -30 1z"/>
<path d="M10202 1861 c-89 -31 -142 -95 -142 -171 0 -52 22 -101 58 -127 34
-25 141 -67 212 -83 73 -17 85 -24 100 -60 11 -28 11 -34 -7 -58 -17 -22 -29
-28 -72 -30 -49 -3 -55 -1 -87 33 -19 20 -34 45 -34 55 0 18 -7 19 -87 14 -49
-3 -93 -7 -100 -9 -25 -8 36 -155 64 -155 7 0 13 -4 13 -9 0 -5 26 -18 58 -30
43 -16 80 -22 145 -22 187 0 288 66 304 199 7 66 -10 115 -57 155 -37 32 -84
49 -241 92 -65 17 -99 47 -83 73 18 29 56 43 98 36 47 -8 60 -19 70 -59 5 -20
10 -25 15 -16 7 11 10 11 14 0 3 -8 6 -9 6 -4 1 6 31 9 76 7 77 -4 80 -2 76
38 -4 33 -33 80 -62 101 -72 51 -234 65 -337 30z"/>
<path d="M11325 1870 c-151 -23 -253 -129 -270 -280 -8 -65 7 -165 31 -217 48
-101 165 -163 307 -163 44 0 73 5 142 23 6 2 26 11 45 21 93 48 140 148 140
297 0 116 -28 187 -96 248 -70 61 -185 89 -299 71z m131 -150 c72 -25 98 -227
40 -312 -47 -71 -157 -74 -208 -5 -35 46 -47 102 -37 176 10 72 30 111 68 134
30 19 94 22 137 7z"/>
<path d="M14202 1861 c-89 -31 -142 -95 -142 -171 0 -52 22 -101 58 -127 34
-25 141 -67 212 -83 73 -17 85 -24 100 -60 11 -28 11 -34 -7 -58 -17 -22 -29
-28 -72 -30 -49 -3 -55 -1 -87 33 -19 20 -34 45 -34 55 0 18 -7 19 -87 14 -49
-3 -93 -7 -100 -9 -25 -8 36 -155 64 -155 7 0 13 -4 13 -9 0 -5 26 -18 58 -30
43 -16 80 -22 145 -22 187 0 288 66 304 199 7 66 -10 115 -57 155 -37 32 -84
49 -241 92 -65 17 -99 47 -83 73 18 29 56 43 98 36 47 -8 60 -19 70 -59 5 -20
10 -25 15 -16 7 11 10 11 14 0 3 -8 6 -9 6 -4 1 6 31 9 76 7 77 -4 80 -2 76
38 -4 33 -33 80 -62 101 -72 51 -234 65 -337 30z"/>
<path d="M9720 1540 l0 -330 100 0 c73 0 100 3 101 13 1 6 2 155 3 330 l1 317
-102 0 -103 0 0 -330z"/>
<path d="M10740 1540 l0 -330 100 0 c73 0 100 3 101 13 1 6 2 155 3 330 l1
317 -102 0 -103 0 0 -330z"/>
<path d="M11833 1728 c4 -79 7 -227 7 -330 l0 -188 90 0 90 0 0 176 c0 177 5
200 34 149 6 -11 17 -25 24 -33 6 -7 12 -17 12 -20 0 -4 20 -32 45 -62 25 -30
45 -58 45 -63 0 -7 9 -20 38 -52 6 -7 12 -16 12 -20 0 -3 12 -22 26 -41 l27
-35 91 3 91 3 5 328 5 327 -97 0 -98 0 0 -182 c0 -175 -1 -181 -17 -158 -9 14
-22 30 -28 36 -12 14 -21 27 -77 114 -23 36 -44 67 -47 70 -6 5 -15 18 -53 82
l-23 38 -104 0 -104 0 6 -142z"/>
<path d="M12960 1540 l0 -330 100 0 c73 0 100 3 101 13 1 6 2 155 3 330 l1
317 -102 0 -103 0 0 -330z"/>
<path d="M13273 1728 c4 -79 7 -227 7 -330 l0 -188 90 0 90 0 0 176 c0 177 5
200 34 149 6 -11 17 -25 24 -33 6 -7 12 -17 12 -20 0 -4 20 -32 45 -62 25 -30
45 -58 45 -63 0 -7 9 -20 38 -52 6 -7 12 -16 12 -20 0 -3 12 -22 26 -41 l27
-35 91 3 91 3 5 328 5 327 -97 0 -98 0 0 -182 c0 -175 -1 -181 -17 -158 -9 14
-22 30 -28 36 -12 14 -21 27 -77 114 -23 36 -44 67 -47 70 -6 5 -15 18 -53 82
l-23 38 -104 0 -104 0 6 -142z"/>
<path d="M14740 1540 l0 -330 100 0 c73 0 100 3 101 13 1 6 2 155 3 330 l1
317 -102 0 -103 0 0 -330z"/>
<path d="M15259 1854 c-58 -18 -140 -90 -169 -148 -48 -101 -46 -245 5 -345
64 -125 238 -180 430 -136 55 12 158 59 175 79 5 7 11 72 12 144 l3 132 -152
0 -153 0 0 -63 0 -63 65 3 65 3 0 -40 c0 -38 -3 -42 -37 -57 -50 -21 -144 -21
-176 0 -62 40 -95 166 -68 262 24 88 115 139 191 109 33 -14 55 -34 63 -57 5
-15 178 13 184 30 15 39 -68 131 -136 152 -53 16 -246 13 -302 -5z"/>
<path d="M15830 1543 l0 -328 97 3 c54 2 99 5 101 7 2 2 4 58 4 125 1 119 2
122 25 131 38 14 203 12 203 -3 1 -7 2 -67 3 -133 l2 -120 98 -3 97 -3 0 310
c0 170 3 316 6 325 5 14 -7 16 -100 16 l-106 0 0 -115 0 -115 -109 0 c-81 0
-110 3 -114 13 -3 7 -4 59 -3 115 l1 102 -102 0 -103 0 0 -327z"/>
<path d="M16590 1783 l0 -78 107 0 108 0 -3 -170 c-2 -93 -1 -206 3 -250 l6
-80 95 3 94 3 0 250 0 249 104 0 104 0 4 75 3 75 -312 0 -313 0 0 -77z"/>
<path d="M8950 1441 c0 -11 31 -24 39 -16 3 3 -1 10 -9 15 -19 12 -30 12 -30
1z"/>
<path d="M8833 1394 c-4 -10 1 -22 12 -30 12 -9 16 -21 13 -39 -6 -29 -7 -28
27 -15 21 8 25 14 19 33 -7 23 -44 67 -57 67 -4 0 -10 -7 -14 -16z"/>
<path d="M9070 1172 c-23 -19 -24 -22 -9 -37 9 -9 23 -13 32 -9 22 8 22 24 0
24 -14 0 -15 2 -4 9 7 5 12 14 9 21 -2 8 -11 5 -28 -8z"/>
<path d="M9210 1169 c0 -5 5 -7 10 -4 6 3 10 8 10 11 0 2 -4 4 -10 4 -5 0 -10
-5 -10 -11z"/>
<path d="M9040 1029 c0 -5 5 -7 10 -4 6 3 10 8 10 11 0 2 -4 4 -10 4 -5 0 -10
-5 -10 -11z"/>
</g>
</svg>
